<?xml version="1.0" encoding="UTF-8"?>
<svg width="291px" height="50px" viewBox="0 0 291 50" version="1.1" xmlns="http://www.w3.org/2000/svg" xmlns:xlink="http://www.w3.org/1999/xlink">
    <!-- Generator: Sketch 51.2 (57519) - http://www.bohemiancoding.com/sketch -->
    <title>Combined Shape</title>
    <desc>Created with Sketch.</desc>
    <defs></defs>
    <g id="Page-1" stroke="none" stroke-width="1" fill="none" fill-rule="evenodd">
        <g id="logo" transform="translate(-152.000000, -225.000000)" fill="#3498DB">
            <path d="M160,272 C160,273.656854 158.656854,275 157,275 C155.343146,275 154,273.656854 154,272 L154,253 L177,253 C183.075132,253 188,248.075132 188,242 C188,235.924868 183.075132,231 177,231 L155,231 C153.343146,231 152,229.656854 152,228 C152,226.343146 153.343146,225 155,225 L177,225 C186.388841,225 194,232.611159 194,242 C194,251.388841 186.388841,259 177,259 L160,259 L160,272 Z M242,275 L208,275 C206.343146,275 205,273.656854 205,272 L205,228 C205,226.343146 206.343146,225 208,225 C209.656854,225 211,226.343146 211,228 L211,269 L242,269 C243.656854,269 245,270.343146 245,272 C245,273.656854 243.656854,275 242,275 Z M334,253 L306,253 L306,269 L337,269 C338.656854,269 340,270.343146 340,272 C340,273.656854 338.656854,275 337,275 L303,275 C301.343146,275 300,273.656854 300,272 L300,228 C300,226.343146 301.343146,225 303,225 L337,225 C338.656854,225 340,226.343146 340,228 C340,229.656854 338.656854,231 337,231 L306,231 L306,247 L334,247 C335.656854,247 337,248.343146 337,250 C337,251.656854 335.656854,253 334,253 Z M285,253 L257,253 L257,269 L288,269 C289.656854,269 291,270.343146 291,272 C291,273.656854 289.656854,275 288,275 L254,275 C252.343146,275 251,273.656854 251,272 L251,228 C251,226.343146 252.343146,225 254,225 L288,225 C289.656854,225 291,226.343146 291,228 C291,229.656854 289.656854,231 288,231 L257,231 L257,247 L285,247 C286.656854,247 288,248.343146 288,250 C288,251.656854 286.656854,253 285,253 Z M385,269 C386.656854,269 388,270.343146 388,272 C388,273.656854 386.656854,275 385,275 L373,275 C359.192881,275 348,263.807119 348,250 C348,236.192881 359.192881,225 373,225 L385,225 C386.656854,225 388,226.343146 388,228 C388,229.656854 386.656854,231 385,231 L373,231 C362.50659,231 354,239.50659 354,250 C354,260.49341 362.50659,269 373,269 L385,269 Z M418,275 C404.192881,275 393,263.807119 393,250 C393,236.192881 404.192881,225 418,225 C431.807119,225 443,236.192881 443,250 C443,263.807119 431.807119,275 418,275 Z M418,269 C428.49341,269 437,260.49341 437,250 C437,239.50659 428.49341,231 418,231 C407.50659,231 399,239.50659 399,250 C399,260.49341 407.50659,269 418,269 Z" id="Combined-Shape"></path>
        </g>
    </g>
</svg>