<svg width="119" height="62" xmlns="http://www.w3.org/2000/svg"><defs><linearGradient x1="10.516%" y1="-26.766%" x2="82.797%" y2="119.824%" id="a"><stop stop-color="#6DD2FF" offset="0%"/><stop stop-color="#6DD2FF" offset="0%"/><stop stop-color="#6DD2FF" offset="0%"/><stop stop-color="#3395E1" offset="64.332%"/><stop stop-color="#2587E6" offset="100%"/></linearGradient></defs><g fill="none" fill-rule="evenodd" opacity=".99"><path d="M31 62c17.12 0 31-13.88 31-31C62 13.88 48.12 0 31 0 13.88 0 0 13.88 0 31c0 17.12 13.88 31 31 31z" fill="url(#a)"/><path d="M72.698 38.238c2.176 0 4.08-1.071 5.1-2.754l-2.346-1.36c-.51.918-1.547 1.462-2.754 1.462-2.108 0-3.468-1.411-3.468-3.536s1.36-3.536 3.468-3.536c1.207 0 2.227.544 2.754 1.462l2.346-1.36c-1.037-1.683-2.941-2.754-5.1-2.754-3.587 0-6.188 2.686-6.188 6.188s2.601 6.188 6.188 6.188zM93.814 26.1v4.556h-3.74V26.1h-2.72V38h2.72v-4.726h3.74V38h2.72V26.1h-2.72zm18.72 12.138c-3.418 0-6.189-2.686-6.189-6.188s2.771-6.188 6.188-6.188 6.188 2.686 6.188 6.188-2.77 6.188-6.188 6.188zm0-2.652c1.937 0 3.467-1.411 3.467-3.536s-1.53-3.536-3.468-3.536-3.468 1.411-3.468 3.536 1.53 3.536 3.468 3.536z" fill="#3899E1"/><path d="M51.605 26.1V38h-2.72v-3.91h-.867L45.485 38h-3.06l2.788-4.25c-1.445-.612-2.448-2.023-2.448-3.57a4.07 4.07 0 0 1 4.08-4.08h4.76zm-4.76 5.61h2.04v-3.06h-2.04c-.748 0-1.36.663-1.36 1.53s.612 1.53 1.36 1.53z" fill="#FFF"/></g></svg>