<?xml version="1.0" standalone="no"?>
<!DOCTYPE svg PUBLIC "-//W3C//DTD SVG 20010904//EN"
 "http://www.w3.org/TR/2001/REC-SVG-20010904/DTD/svg10.dtd">
<svg version="1.0" xmlns="http://www.w3.org/2000/svg"
 width="700.000000pt" height="700.000000pt" viewBox="0 0 700.000000 700.000000"
 preserveAspectRatio="xMidYMid meet">
<metadata>
Created by potrace 1.11, written by Peter Selinger 2001-2013
</metadata>
<g transform="translate(0.000000,700.000000) scale(0.100000,-0.100000)"
fill="#000000" stroke="none">
<path d="M4499 6169 c-240 -49 -447 -195 -560 -394 -64 -114 -81 -173 -55
-194 14 -12 23 -10 61 10 25 13 45 27 45 30 0 12 179 90 255 110 95 25 339 32
415 11 146 -41 250 -101 356 -206 242 -242 391 -565 558 -1216 60 -232 60
-236 61 -300 0 -51 -5 -62 -61 -145 -65 -95 -224 -386 -224 -409 0 -2 -38 -82
-83 -177 -46 -96 -99 -205 -117 -244 -88 -189 -108 -232 -181 -384 -44 -90
-79 -165 -79 -166 0 -2 -36 -78 -80 -170 -44 -92 -80 -168 -80 -170 0 -1 -31
-67 -69 -146 -144 -301 -190 -399 -195 -417 -8 -25 7 -65 36 -92 48 -46 269
-130 343 -130 47 0 129 119 199 290 27 63 54 129 62 145 7 17 33 82 58 145 24
63 79 203 121 310 42 107 88 227 102 265 14 39 31 84 38 100 19 44 183 484
250 670 32 88 62 166 68 173 18 22 25 1 81 -240 9 -38 23 -96 31 -130 8 -35
17 -72 19 -83 12 -54 59 -254 81 -346 15 -57 28 -113 30 -124 11 -48 16 -67
50 -205 20 -80 38 -154 41 -165 9 -50 78 -290 110 -389 104 -316 215 -438 388
-424 205 17 389 249 421 533 8 79 0 82 -91 46 -143 -57 -281 -69 -388 -35
-187 59 -278 220 -382 674 -13 58 -33 143 -43 190 -17 73 -110 505 -125 580
-9 46 -30 148 -40 195 -39 180 -123 582 -132 630 -2 17 -7 37 -9 45 -2 8 -7
31 -10 50 -3 19 -8 42 -10 50 -3 8 -21 92 -41 185 -19 94 -37 179 -40 190 -2
11 -6 31 -9 45 -7 32 -54 240 -59 260 -3 8 -11 44 -20 80 -45 189 -180 531
-272 687 -31 54 -60 100 -63 103 -3 3 -24 27 -45 54 -101 125 -216 204 -353
242 -84 23 -259 25 -364 3z"/>
<path d="M2062 5862 c-10 -7 -79 -151 -319 -672 -38 -83 -66 -144 -68 -150 -1
-3 -15 -34 -32 -70 -17 -36 -43 -92 -58 -125 -15 -33 -80 -175 -145 -315 -64
-140 -127 -277 -140 -305 -12 -27 -40 -88 -62 -134 -22 -46 -52 -111 -67 -145
-30 -63 -198 -425 -258 -556 -20 -41 -75 -160 -123 -265 -48 -104 -124 -264
-167 -355 -44 -91 -95 -199 -113 -240 -32 -71 -222 -449 -419 -833 -50 -98
-91 -184 -91 -191 0 -7 9 -21 19 -30 18 -16 44 -17 337 -9 575 14 3232 5 3504
-13 47 -3 108 -6 135 -8 75 -5 114 14 115 56 0 9 -114 248 -254 530 -329 665
-473 964 -613 1268 -14 30 -55 116 -90 190 -59 124 -203 435 -428 925 -48 105
-112 246 -142 315 -102 233 -125 285 -154 348 -16 35 -29 65 -29 67 0 3 -13
33 -29 68 -65 142 -193 469 -232 595 -17 52 -24 62 -42 62 -12 0 -28 -4 -35
-8z m-198 -924 c7 -18 27 -62 44 -98 39 -83 201 -436 257 -560 24 -52 59 -129
78 -170 80 -172 351 -768 427 -940 45 -102 94 -210 108 -240 66 -145 362 -818
362 -825 0 -3 12 -30 26 -62 94 -210 97 -225 45 -245 -14 -5 -64 -13 -111 -16
-117 -10 -2122 -9 -2350 1 -305 12 -350 19 -350 54 0 14 333 774 455 1038 18
39 47 104 65 145 18 41 44 100 57 130 14 30 33 73 43 95 41 93 101 227 235
520 15 33 35 78 45 100 10 22 29 65 43 95 14 30 45 100 70 155 49 110 94 208
137 300 34 74 65 141 168 364 44 96 87 178 94 182 24 16 38 9 52 -23z"/>
</g>
</svg>
